<svg xmlns:xlink="http://www.w3.org/1999/xlink" xmlns="http://www.w3.org/2000/svg" color="#FFFFFF60"
    width="406" height="409"
    viewbox="0 0 406 409">
    <defs>
        <path
            d="m120.384 0 50.057 50.282a30.46 30.46 0 0 0-5.248-.465c-16.723-.038-30.311 13.49-30.349 30.213-.037 16.723 13.49 30.311 30.213 30.349 16.724.037 30.312-13.49 30.349-30.213a30.495 30.495 0 0 0-.441-5.251l47.649 47.864-42.164 41.975c14.753 2.059 26.092 14.743 26.058 30.057-.038 16.723-13.625 30.25-30.349 30.213-15.314-.035-27.947-11.431-29.939-26.192l-43.99 43.792-43.748-43.946-.515-.516c.425.018.852.028 1.282.029 16.723.038 30.311-13.489 30.349-30.213.037-16.724-13.49-30.311-30.213-30.349-16.724-.037-30.312 13.49-30.35 30.213 0 .43.008.857.025 1.282l-.477-.479L0 119.844l46.037-45.831a30.19 30.19 0 0 1-2.155.071c-16.724-.037-30.25-13.625-30.213-30.349.037-16.723 13.625-30.25 30.348-30.213 16.724.038 30.25 13.625 30.213 30.35a30.752 30.752 0 0 1-.08 2.155L120.384 0Z"
            id="a" />
        <path
            d="m190.293 173.051 52.216-48.034L127.505 0 76.826 46.62l-.497.457c.426 0 .853.009 1.282.027 16.709.697 29.689 14.807 28.992 31.517-.697 16.709-14.808 29.689-31.517 28.992-16.709-.697-29.689-14.808-28.992-31.517.018-.429.044-.855.08-1.279l-.537.494L0 117.292l42.02 45.679c-14.828 1.409-26.714 13.583-27.352 28.883-.697 16.709 12.283 30.82 28.992 31.517 15.301.638 28.422-10.192 31.061-24.852l40.283 43.79 49.707-45.726c-1.744.23-3.505.308-5.263.234-16.71-.697-29.69-14.808-28.993-31.517.697-16.709 14.808-29.689 31.517-28.992 16.709.697 29.689 14.808 28.992 31.517a30.486 30.486 0 0 1-.671 5.226Z"
            id="c" />
    </defs>
    <g transform="translate(.76 .27)" fill="none" fill-rule="evenodd">
        <path
            d="M337.978 107.726c-6.394 2-11.259 6.862-13.257 13.257a1.037 1.037 0 0 1-1.992 0c-1.998-6.395-6.863-11.257-13.257-13.257a1.038 1.038 0 0 1 0-1.992c6.394-1.998 11.259-6.861 13.257-13.257a1.037 1.037 0 0 1 1.992 0c1.998 6.396 6.863 11.259 13.257 13.257.996.312.996 1.68 0 1.992ZM80.003 315.193c-6.181 1.933-10.884 6.634-12.815 12.815a1.003 1.003 0 0 1-1.926 0c-1.931-6.181-6.634-10.882-12.815-12.815a1.003 1.003 0 0 1 0-1.926c6.181-1.931 10.884-6.632 12.815-12.815a1.003 1.003 0 0 1 1.926 0c1.931 6.183 6.634 10.884 12.815 12.815a1.003 1.003 0 0 1 0 1.926Z"
            fill="#8876FE" />
        <circle fill="#FFFFFF40" fill-rule="nonzero" cx="374.725" cy="391.73" r="10" />
        <circle fill="#FFFFFF40" fill-rule="nonzero" cx="250.225" cy="19.23" r="7.5" />
        <mask id="b" fill="#FFFFFF">
            <use xlink:href="#a" />
        </mask>
        <path
            d="m170.441 50.282-.641 3.625 11.467 2.03-8.216-8.252-2.61 2.597ZM120.384-.001l2.609-2.597-2.597-2.609-2.609 2.597L120.384 0v-.001Zm74.581 74.916 2.609-2.597-8.217-8.253 1.98 11.476 3.628-.626Zm47.649 47.864 2.598 2.609 2.609-2.597-2.598-2.609-2.609 2.597Zm-42.164 41.975-2.597-2.609-5.254 5.231 7.343 1.024.508-3.646Zm-34.23 34.078 3.648-.493-.992-7.347-5.254 5.231 2.598 2.609Zm-43.99 43.792-2.609 2.597 2.598 2.609 2.609-2.597-2.598-2.609Zm-43.748-43.946-2.61 2.598 2.61-2.598Zm-.515-.516.161-3.678-9.43-.414 6.66 6.689 2.609-2.597ZM49.06 169.124l-2.61 2.597 6.66 6.69-.372-9.432-3.678.145Zm-.477-.479-2.61 2.598 2.61-2.598ZM0 119.844l-2.597-2.609-2.609 2.598 2.597 2.609 2.61-2.598H0Zm46.037-45.831 2.598 2.609 6.982-6.95-9.83.668.25 3.673ZM74.15 46.027l-3.672-.267-.713 9.827 6.982-6.951-2.597-2.61v.001Zm98.901 1.658L122.993-2.598l-5.218 5.195 50.057 50.282 5.219-5.194Zm-7.866 5.813c1.577.004 3.119.144 4.615.409l1.283-7.25a34.146 34.146 0 0 0-5.882-.522l-.016 7.363Zm-26.659 26.54c.033-14.69 11.969-26.573 26.659-26.54l.016-7.363c-18.756-.042-33.996 15.13-34.038 33.886l7.363.017Zm26.54 26.659c-14.691-.033-26.573-11.969-26.54-26.659l-7.363-.017c-.042 18.757 15.129 33.997 33.886 34.039l.017-7.363Zm26.659-26.54c-.033 14.691-11.969 26.573-26.659 26.54l-.017 7.363c18.757.042 33.997-15.129 34.039-33.886l-7.363-.017Zm-.388-4.616c.258 1.497.391 3.039.388 4.616l7.363.017c.005-1.972-.16-3.94-.495-5.884l-7.256 1.251Zm53.886 44.641-47.649-47.864-5.218 5.195 47.649 47.864 5.218-5.195Zm-42.175 47.181 42.164-41.975-5.195-5.218-42.164 41.975 5.195 5.218Zm27.141 27.456c.039-17.179-12.68-31.401-29.23-33.711l-1.017 7.292c12.955 1.808 22.914 12.954 22.884 26.402l7.363.017Zm-34.038 33.886c18.757.042 33.996-15.129 34.038-33.886l-7.363-.017c-.033 14.691-11.968 26.573-26.659 26.54l-.016 7.363Zm-33.58-29.381c2.235 16.56 16.401 29.343 33.58 29.381l.016-7.363c-13.449-.03-24.549-10.039-26.299-23.003l-7.297.985Zm-37.743 45.909 43.989-43.792-5.195-5.218-43.989 43.792 5.195 5.218Zm-48.955-43.957 43.748 43.945 5.218-5.194-43.748-43.946-5.218 5.195Zm-.515-.517.515.517 5.218-5.195-.515-.517-5.218 5.195Zm3.899-6.249a28.14 28.14 0 0 1-1.129-.026l-.322 7.355c.476.021.954.032 1.434.034l.017-7.363Zm26.659-26.54c-.033 14.69-11.969 26.573-26.659 26.54l-.016 7.363c18.756.042 33.996-15.13 34.038-33.887l-7.363-.016Zm-26.54-26.659c14.691.033 26.573 11.968 26.54 26.659l7.363.016c.042-18.757-15.129-33.996-33.886-34.038l-.017 7.363ZM52.717 167.85c.033-14.69 11.969-26.572 26.66-26.539l.016-7.363c-18.757-.042-33.997 15.129-34.039 33.886l7.363.016Zm.021 1.129c-.014-.374-.022-.75-.02-1.129l-7.364-.016c0 .48.008.959.027 1.435l7.357-.29Zm-6.764 2.264.476.478 5.219-5.194-.477-.479-5.218 5.195Zm-48.583-48.801 48.583 48.801 5.218-5.195L2.61 117.247l-5.219 5.195Zm46.05-51.038-46.038 45.831 5.195 5.218 46.037-45.831-5.195-5.218h.001Zm2.346-1.064a27.07 27.07 0 0 1-1.897.063l-.017 7.363c.811.001 1.616-.025 2.414-.08l-.5-7.346Zm-1.897.063c-14.69-.033-26.573-11.969-26.54-26.66l-7.363-.016c-.042 18.757 15.13 33.997 33.886 34.039l.017-7.363Zm-26.54-26.66c.033-14.69 11.969-26.572 26.66-26.54l.016-7.362C25.269 9.799 10.029 24.97 9.987 43.727l7.363.016Zm26.66-26.54c14.69.034 26.572 11.97 26.539 26.66l7.363.017c.042-18.757-15.13-33.997-33.886-34.04l-.017 7.364.001-.001Zm26.539 26.66a27.049 27.049 0 0 1-.07 1.897l7.343.533a34.46 34.46 0 0 0 .09-2.413l-7.363-.017ZM117.787-2.61 71.553 43.418l5.194 5.218 46.235-46.027-5.195-5.219Z"
            fill="currentColor" fill-rule="nonzero" mask="url(#b)" />
        <g transform="translate(162.098 166.314)">
            <mask id="d" fill="#FFFFFF">
                <use xlink:href="#c" />
            </mask>
            <path
                d="m242.509 125.017 2.492 2.709 2.71-2.492-2.493-2.71-2.709 2.493Zm-52.216 48.034-3.597-.785-2.482 11.379 8.571-7.885-2.492-2.709ZM127.505 0l2.71-2.492-2.493-2.71-2.709 2.492L127.505 0ZM76.826 46.62l2.493 2.709-2.493-2.709Zm-.497.457-2.492-2.709-6.947 6.39h9.439v-3.681Zm-30.155 27.74 3.669.306.785-9.405-6.947 6.39 2.493 2.709Zm-.537.494 2.493 2.709-2.493-2.709ZM0 117.292l-2.492-2.709-2.71 2.492 2.493 2.71L0 117.292Zm42.02 45.679.349 3.665 7.38-.701-5.019-5.456-2.71 2.492Zm32.701 35.548 2.71-2.492-5.019-5.456-1.314 7.296 3.623.652Zm40.283 43.79-2.71 2.493 2.493 2.709 2.709-2.492-2.492-2.71Zm49.707-45.726 2.493 2.709 8.571-7.884-11.546 1.525.482 3.65Zm75.305-74.276L187.8 170.341l4.985 5.419 52.216-48.034-4.985-5.419ZM124.796 2.492l115.003 125.017 5.419-4.985L130.215-2.492l-5.419 4.984ZM79.319 49.329l50.679-46.62-4.985-5.419-50.679 46.62 4.985 5.419Zm-.497.457.497-.457-4.985-5.419-.497.458 4.985 5.418Zm-1.058-6.361c-.48-.02-.958-.029-1.434-.03l-.001 7.363c.374.001.75.008 1.128.024l.307-7.357Zm32.517 35.349c.782-18.741-13.776-34.567-32.517-35.349l-.307 7.357c14.678.612 26.08 13.007 25.468 27.685l7.356.307Zm-35.348 32.517c18.74.782 34.566-13.776 35.348-32.517l-7.356-.307c-.613 14.678-13.008 26.08-27.685 25.468l-.307 7.356ZM42.415 75.943c-.781 18.74 13.777 34.567 32.518 35.348l.307-7.356c-14.678-.613-26.08-13.008-25.468-27.685l-7.357-.307Zm.09-1.432c-.04.474-.07.952-.09 1.432l7.357.307c.016-.378.039-.754.071-1.127l-7.338-.612Zm5.625 3.509.536-.493-4.985-5.419-.536.493 4.985 5.419ZM2.493 120.002 48.13 78.02l-4.985-5.419-45.637 41.982 4.985 5.419Zm42.237 40.477L2.71 114.8l-5.419 4.985 42.02 45.678 5.419-4.984Zm-26.384 31.528c.561-13.437 11-24.134 24.023-25.371l-.697-7.33c-16.635 1.58-29.966 15.231-30.682 32.395l7.356.306Zm25.468 27.686c-14.678-.613-26.08-13.008-25.468-27.686l-7.356-.306c-.782 18.74 13.776 34.566 32.517 35.348l.307-7.356Zm27.284-21.826c-2.317 12.874-13.847 22.386-27.284 21.826l-.307 7.356c17.164.716 31.877-11.432 34.838-27.877l-7.247-1.305Zm46.615 41.95-40.282-43.79-5.419 4.985 40.282 43.79 5.419-4.985Zm44.506-45.943L112.511 239.6l4.985 5.419 49.708-45.727-4.985-5.418Zm-2.925 6.621c1.97.083 3.944-.004 5.899-.262l-.964-7.3a26.755 26.755 0 0 1-4.628.206l-.307 7.356Zm-32.517-35.348c-.782 18.741 13.776 34.567 32.517 35.348l.307-7.356c-14.678-.613-26.08-13.008-25.468-27.685l-7.356-.307Zm35.348-32.517c-18.74-.782-34.566 13.776-35.348 32.517l7.356.307c.613-14.678 13.008-26.08 27.685-25.468l.307-7.356Zm32.518 35.348c.782-18.74-13.777-34.567-32.518-35.348l-.307 7.356c14.678.613 26.08 13.008 25.468 27.685l7.357.307Zm-.753 5.857c.413-1.898.669-3.855.753-5.857l-7.357-.307a26.88 26.88 0 0 1-.59 4.595l7.194 1.569Z"
                fill="currentColor" fill-rule="nonzero" mask="url(#d)" />
        </g>
    </g>
</svg>