<svg xmlns="http://www.w3.org/2000/svg" color="#FFFFFF60" width="462" height="429"
    viewbox="0 0 462 429">
    <g fill="none" fill-rule="evenodd">
        <path
            d="m186.057 65.382 7.17-26.265c2.344-8.587 11.205-13.648 19.792-11.304l.067.018 133.927 37.18c8.576 2.381 13.6 11.264 11.22 19.84L301.84 288.06h0"
            stroke="#FFFFFF40" stroke-width="4" stroke-linecap="round" />
        <rect stroke="currentColor" stroke-width="4" x="101.987" y="76.382"
            width="192.468" height="293.021" rx="18.318" />
        <path
            d="M250.112 180.076c-23.607 7.403-41.566 25.41-48.942 49.087-1.152 3.688-6.202 3.688-7.354 0-7.376-23.677-25.335-41.684-48.942-49.087-3.678-1.156-3.678-6.22 0-7.376 23.607-7.398 41.566-25.405 48.942-49.087 1.152-3.688 6.202-3.688 7.354 0 7.376 23.682 25.335 41.69 48.942 49.087 3.677 1.155 3.677 6.22 0 7.376Z"
            stroke="#8876FE" stroke-width="4" />
        <path stroke="#8876FE" stroke-width="4" stroke-linecap="round"
            d="M127.704 276.565h139.748" />
        <path d="M211.284 307.425h56.168m-56.168 14.144h56.168m-56.168 14.145h56.168"
            stroke="currentColor" stroke-width="4" stroke-linecap="round" />
        <path
            d="m132.908 337.593 2.948-8.885h13.432l2.966 8.885h6.908l-12.595-36.034h-7.99L126 337.593h6.908Zm4.693-14.129 4.832-14.516h.279l4.832 14.516h-9.943Zm33.698 14.675c4.204 0 6.716-1.988 7.867-4.258h.21v3.712h6.071v-18.087c0-7.144-5.775-9.29-10.886-9.29-5.634 0-9.961 2.533-11.356 7.46l5.896.844c.628-1.847 2.407-3.43 5.495-3.43 2.931 0 4.536 1.512 4.536 4.17v.105c0 1.83-1.902 1.918-6.629 2.428-5.199.563-10.17 2.13-10.17 8.217 0 5.314 3.855 8.13 8.966 8.13Zm1.64-4.68c-2.634 0-4.518-1.215-4.518-3.555 0-2.445 2.11-3.466 4.936-3.87 1.658-.229 4.972-.652 5.792-1.32v3.184c0 3.01-2.407 5.561-6.21 5.561Z"
            fill="#8876FE" fill-rule="nonzero" />
        <path
            d="m294.431 419.466-1.461-.903.563 1.622v.001a2.291 2.291 0 0 1-.113 1.792l-.001.001-.982 1.925 2.092-.54h.001a2.294 2.294 0 0 1 1.774.28l1.461.902-.562-1.622a2.287 2.287 0 0 1 .113-1.793h.001l.982-1.925-2.092.54a2.291 2.291 0 0 1-1.775-.279h-.001Z"
            stroke="#8876FE" stroke-width="4" />
        <path
            d="M53.584 47.84h.002l2.906.184-1.749-2.328c-.6-.81-.846-1.83-.68-2.825l.313-1.94-1.45 1.324a3.714 3.714 0 0 1-2.734.983h-.002l-2.907-.186 1.75 2.328v.001c.647.861.829 1.901.68 2.825l-.314 1.941 1.45-1.325h.001a3.713 3.713 0 0 1 2.734-.983Z"
            stroke="#8876FE" stroke-width="4" />
        <path
            d="M459.678 187.314a8.052 8.052 0 1 0-12.197 10.514 8.052 8.052 0 0 0 12.197-10.514ZM7.585 257.475A5.991 5.991 0 0 0 4.4 269.026a5.992 5.992 0 0 0 3.185-11.55ZM124.354.127a3.43 3.43 0 1 0-1.824 6.613 3.43 3.43 0 1 0 1.825-6.614l-.001.001Z"
            fill="#FFFFFF40" fill-rule="nonzero" />
    </g>
</svg>