<svg xmlns="http://www.w3.org/2000/svg" color="#05050560" width="376" height="402"
    viewbox="0 0 376 402">
    <g transform="translate(0 .071)" fill="none" fill-rule="evenodd">
        <path
            d="m38.608 204.749 155.78 195.087M38.607 204.749l50.956-69.883m-50.956 69.883 88.323 27.176m67.456 167.911L348.71 204.749M194.387 399.836l-67.456-167.911m67.456 167.911 65.03-167.911m89.293-27.176-52.412-69.883m52.412 69.883-89.294 27.176m36.882-97.059-101.91-15.044-104.824 15.044m206.734 0-36.882 97.059m36.882-97.059c-33.97 6.471-101.91 19.801-101.91 21.354M89.563 134.866l104.823 21.354M89.564 134.866l37.367 97.059m0 0h132.485m-132.485 0 67.456-75.705m65.03 75.705-65.03-75.705"
            stroke="currentColor" stroke-width="4" />
        <path
            d="m265.781 1.029-3.452 9.706c-.147.416-.44.745-.81.912l-8.623 3.885c-1.218.55-1.218 2.49 0 3.039l8.623 3.885c.37.166.662.496.81.912l3.452 9.706c.488 1.371 2.213 1.371 2.7 0l3.452-9.706c.148-.416.44-.745.81-.912l8.623-3.885c1.218-.549 1.218-2.49 0-3.04l-8.623-3.885a1.556 1.556 0 0 1-.81-.91l-3.452-9.707c-.487-1.372-2.212-1.372-2.7 0ZM11.814 99.291l-2.956 8.31a1.336 1.336 0 0 1-.693.781l-7.383 3.326c-1.043.47-1.043 2.132 0 2.602l7.383 3.326c.316.143.567.425.693.781l2.956 8.31c.417 1.174 1.894 1.174 2.311 0l2.956-8.31c.126-.356.377-.638.693-.781l7.383-3.326c1.043-.47 1.043-2.132 0-2.602l-7.383-3.326a1.336 1.336 0 0 1-.693-.781l-2.956-8.31c-.417-1.174-1.894-1.174-2.312 0h.001Z"
            fill="#8876FE" fill-rule="nonzero" />
        <circle stroke="#05050540" stroke-width="4" cx="123.603" cy="32" r="25.397" />
        <path
            d="M110.055 29.401a2 2 0 0 0 4 0h-4Zm13.35-9.094a2 2 0 1 0 .398-3.98l-.398 3.98Zm-9.35 9.094c0-2.047 1.02-4.504 2.806-6.386 1.765-1.859 4.077-2.954 6.544-2.708l.398-3.98c-3.982-.398-7.445 1.409-9.842 3.934-2.375 2.501-3.906 5.909-3.906 9.14h4Z"
            fill="#8876FE" fill-rule="nonzero" />
        <circle stroke="#05050540" stroke-width="4" cx="355.288" cy="98.411"
            r="18.01" />
        <path
            d="M345.08 98.637a2 2 0 1 0 3.973-.453l-3.974.453Zm12.23-7.333a2 2 0 1 0 .831-3.912l-.832 3.912Zm-8.257 6.88c-.156-1.369.687-3.329 2.476-4.931 1.752-1.571 3.92-2.345 5.78-1.949l.832-3.912c-3.497-.744-6.916.762-9.282 2.882-2.33 2.088-4.137 5.229-3.78 8.363l3.974-.453Z"
            fill="#8876FE" fill-rule="nonzero" />
    </g>
</svg>