<svg xmlns="http://www.w3.org/2000/svg" width="32" height="32" fill="#050505CC" viewBox="0 0 24 24">
    <path
        d="M22,0H2C0.896,0,0,0.895,0,2v20c0,1.105,0.896,2,2,2h20c1.104,0,2-0.895,2-2V2C24,0.895,23.104,0,22,0z M14.152,16.35h-1.65c-0.083,0-0.132-0.02-0.148-0.086l-0.825-3.015H8.322l0.003,0.001l-0.792,2.998c-0.017,0.083-0.05,0.102-0.148,0.102H5.917c-0.1,0-0.115-0.033-0.1-0.148l2.84-9.945c0.05-0.18,0.082-0.338,0.098-0.833c0-0.066,0.033-0.1,0.083-0.1h2.096c0.066,0,0.1,0.018,0.116,0.1l3.185,10.794C14.252,16.301,14.235,16.35,14.152,16.35z M17.531,16.242c0,0.083-0.016,0.116-0.115,0.116h-1.55c-0.1,0-0.133-0.05-0.133-0.13V8.34l-0.008,0.001c0-0.08,0.033-0.11,0.116-0.11h1.57c0.088,0,0.12,0.033,0.12,0.116V16.242z M16.619,7.09c-0.6,0-1.01-0.363-1.01-1.023h0.004c0-0.643,0.445-1.023,1.023-1.023c0.61,0,1.023,0.412,1.023,1.023C17.659,6.727,17.229,7.09,16.619,7.09z"></path>
    <path
        d="M9.908,6.925c-0.214,1.17-0.742,3.15-1.155,4.7h2.36c-0.28-1.106-0.94-3.528-1.188-4.7H9.908z"></path>
</svg>