<svg xmlns="http://www.w3.org/2000/svg" width="423" height="429" color="#FFFFFF60"
    viewbox="0 0 423 429">
    <g transform="translate(.528)" fill="none" fill-rule="evenodd">
        <rect stroke="currentColor" stroke-width="4" x="127" y="76" width="192.468"
            height="293.021" rx="18.318" />
        <path stroke="#8876FE" stroke-width="4" stroke-linecap="round"
            d="m183.472 335.527 80-.054" />
        <path
            d="m132.903 419.466-1.46-.903.562 1.622v.001a2.291 2.291 0 0 1-.113 1.792v.001l-.983 1.925 2.092-.54h.001a2.294 2.294 0 0 1 1.774.28l1.461.902-.562-1.622a2.287 2.287 0 0 1 .113-1.793h.001l.982-1.925-2.092.54a2.291 2.291 0 0 1-1.775-.279Z"
            stroke="#8876FE" stroke-width="4" />
        <path
            d="M372.056 47.84h.002l2.906.184-1.749-2.328c-.6-.81-.846-1.83-.68-2.825l.313-1.94-1.45 1.324a3.714 3.714 0 0 1-2.734.983h-.002l-2.907-.186 1.75 2.328v.001c.647.861.83 1.901.68 2.825l-.314 1.941 1.45-1.325h.001a3.713 3.713 0 0 1 2.734-.983Z"
            stroke="#8876FE" stroke-width="4" />
        <path
            d="M6.548 184.662a8.052 8.052 0 1 0 3.007 15.82 8.052 8.052 0 0 0-3.007-15.82Zm411.51 72.813a5.991 5.991 0 0 0-3.186 11.551 5.992 5.992 0 0 0 3.185-11.55ZM299.825.127a3.43 3.43 0 1 0-1.824 6.613 3.43 3.43 0 0 0 1.825-6.614v.001Z"
            fill="#FFFFFF40" fill-rule="nonzero" />
        <path d="M127.726 41.431c-15.364 1.151-37.257 17.971-36.63 37.454" stroke="#8876FE"
            stroke-width="4" stroke-linecap="round" />
        <path
            d="M101.755 32c-8.404.077-20.925 8.446-21.283 19.073M351.294 369c-2.37 6.7-12.052 23.056-31.822 34.888"
            stroke="currentColor" stroke-width="4" stroke-linecap="round" />
        <path
            d="M219.82 241.602c.936.93 2.184 1.24 3.432 1.24 1.247 0 2.495-.31 3.432-1.24l44.612-44.662c4.368-4.343 7.176-10.235 7.176-16.749 0-7.443-3.432-14.266-9.047-18.608-9.672-8.064-24.023-6.203-33.07 2.481L223.252 177.4l-14.04-14.267c-4.367-4.341-10.295-7.133-17.158-7.133-7.488 0-14.04 3.722-18.407 8.994-8.111 9.615-6.24 24.192 2.496 32.876l43.677 43.732Z"
            stroke="#8876FE" stroke-width="4" />
    </g>
</svg>